<?xml version="1.0" encoding="utf-8"?>
<svg xmlns="http://www.w3.org/2000/svg" xmlns:xlink="http://www.w3.org/1999/xlink" x="0px" y="0px"
	 width="24px" height="18px" viewBox="0 0 24 18" xml:space="preserve">
<path fill="#ffffff" fill-rule="evenodd" clip-rule="evenodd" d="M23.373,13.045c-1.401-5.24-5.297-8.239-10.744-8.323
	c-0.168-0.002-0.337,0-0.629,0c0-0.437,0-3.54,0-4.678C10.718-0.07,9.649-0.005,8.594,0.782C7.393,1.677,2.381,5.42,0.986,6.439
	C0.622,6.706,0.327,7.068,0,7.386c0,0.244,0,0.488,0,0.731C0.376,8.45,0.729,8.816,1.134,9.108c2.468,1.776,4.975,3.5,7.411,5.316
	c1.055,0.786,2.169,0.852,3.45,0.738c0-1.473,0-2.92,0-4.359c4.304-0.289,9.947,1.563,11.861,6.88
	c0.031,0.085,0.095,0.16,0.144,0.239c0-0.537,0-1.073,0-1.61C23.794,15.222,23.658,14.114,23.373,13.045z"/>
</svg>
