<?xml version="1.0" encoding="utf-8"?>
<!-- Generator: Adobe Illustrator 16.0.0, SVG Export Plug-In . SVG Version: 6.00 Build 0)  -->
<!DOCTYPE svg PUBLIC "-//W3C//DTD SVG 1.1//EN" "http://www.w3.org/Graphics/SVG/1.1/DTD/svg11.dtd">
<svg version="1.1" id="Слой_1" xmlns="http://www.w3.org/2000/svg" xmlns:xlink="http://www.w3.org/1999/xlink" x="0px" y="0px"
	 width="38px" height="40px" viewBox="0 0 38 40" enable-background="new 0 0 38 40" xml:space="preserve">
<path fill-rule="evenodd" clip-rule="evenodd" fill="#e4b658" d="M34.987,40c-9.877,0-19.753,0-29.629,0
	c-0.608-0.207-1.247-0.354-1.82-0.635c-1.533-0.751-2.357-2.064-2.748-3.686c0-10.453,0-20.905,0-31.358
	c0.353-1.475,1.05-2.738,2.407-3.49C3.865,0.461,4.635,0.271,5.358,0c9.917,0,19.835,0,29.752,0c1.006,0.334,1.732,0.964,2.1,1.976
	c0,12.017,0,24.033,0,36.05C36.817,39.075,36.075,39.732,34.987,40z M21.581,25.066c2.963,0,5.926,0.001,8.888-0.001
	c1.084-0.001,1.552-0.459,1.552-1.531c0.002-5.657,0.002-11.315,0-16.973c0-1.072-0.459-1.538-1.54-1.538
	c-5.925-0.005-11.85-0.005-17.774,0c-1.068,0.001-1.527,0.479-1.527,1.559c-0.003,5.637-0.003,11.273,0,16.91
	c0,1.108,0.469,1.572,1.578,1.573C15.698,25.067,18.64,25.066,21.581,25.066z M19.501,34.969c3.68,0,7.359,0.004,11.04-0.003
	c1.004-0.002,1.47-0.477,1.479-1.469c0.006-0.597,0.002-1.192,0.001-1.789c-0.001-1.324-0.396-1.716-1.737-1.716
	c-7.113-0.001-14.226-0.001-21.339,0c-0.206,0-0.412-0.004-0.617,0.009c-1.576,0.104-2.668,1.644-2.239,3.153
	c0.324,1.14,1.276,1.81,2.619,1.813C12.306,34.973,15.903,34.969,19.501,34.969z"/>
<path fill-rule="evenodd" clip-rule="evenodd" fill="#e4b658" d="M21.207,15.003c-1.193,0-2.386,0.011-3.579-0.002
	c-1.121-0.013-1.561-0.461-1.575-1.584c-0.008-0.658-0.016-1.316,0.003-1.975c0.027-0.951,0.52-1.433,1.471-1.436
	c2.488-0.007,4.978-0.008,7.466,0c0.98,0.003,1.471,0.505,1.481,1.49c0.008,0.658,0.006,1.316,0.001,1.975
	c-0.009,1.037-0.453,1.507-1.504,1.525C23.717,15.02,22.461,15.002,21.207,15.003z"/>
</svg>
