<?xml version="1.0" encoding="utf-8"?>
<!-- Generator: Adobe Illustrator 16.0.0, SVG Export Plug-In . SVG Version: 6.00 Build 0)  -->
<!DOCTYPE svg PUBLIC "-//W3C//DTD SVG 1.1//EN" "http://www.w3.org/Graphics/SVG/1.1/DTD/svg11.dtd">
<svg version="1.1" id="Слой_1" xmlns="http://www.w3.org/2000/svg" xmlns:xlink="http://www.w3.org/1999/xlink" x="0px" y="0px"
	 width="94.07px" height="105.335px" viewBox="0 0 94.07 105.335" enable-background="new 0 0 94.07 105.335" xml:space="preserve">
<g>
	<defs>
		<rect id="SVGID_1_" width="94.07" height="105.335"/>
	</defs>
	<clipPath id="SVGID_2_">
		<use xlink:href="#SVGID_1_"  overflow="visible"/>
	</clipPath>
	<path clip-path="url(#SVGID_2_)" fill="#282D33" d="M47.855,92.094c-1.421,0-2.854-0.082-4.258-0.244l0.459-3.974
		c1.252,0.145,2.529,0.218,3.798,0.218h0.13l0.021,4H47.855z M52.26,91.832l-0.475-3.972c1.256-0.149,2.515-0.376,3.743-0.67
		l0.933,3.89C55.083,91.41,53.669,91.664,52.26,91.832 M39.395,91.115c-1.382-0.326-2.759-0.735-4.094-1.222l1.366-3.76
		c1.189,0.433,2.415,0.798,3.645,1.087L39.395,91.115z M60.547,89.841l-1.384-3.752c1.186-0.438,2.357-0.95,3.484-1.522l1.812,3.566
		C63.195,88.775,61.878,89.35,60.547,89.841 M31.379,88.203c-1.267-0.637-2.51-1.355-3.696-2.135l2.198-3.342
		c1.058,0.695,2.165,1.335,3.294,1.902L31.379,88.203z M68.145,85.982L65.93,82.65c1.053-0.7,2.074-1.469,3.039-2.285l2.585,3.052
		C70.472,84.334,69.324,85.197,68.145,85.982 M24.26,83.52c-1.088-0.911-2.133-1.896-3.106-2.926l2.907-2.748
		c0.867,0.918,1.799,1.796,2.768,2.608L24.26,83.52z M74.645,80.477l-2.92-2.734c0.864-0.923,1.684-1.906,2.436-2.923l3.216,2.378
		C76.533,78.339,75.614,79.44,74.645,80.477 M18.406,77.33c-0.848-1.136-1.639-2.333-2.351-3.559l3.46-2.008
		c0.634,1.092,1.339,2.16,2.096,3.172L18.406,77.33z M79.71,73.624l-3.47-1.989c0.629-1.098,1.199-2.242,1.695-3.404l3.678,1.571
		C81.057,71.106,80.416,72.393,79.71,73.624 M14.133,69.963c-0.564-1.302-1.058-2.651-1.466-4.01l3.831-1.151
		c0.364,1.21,0.803,2.411,1.305,3.569L14.133,69.963z M83.059,65.783l-3.836-1.132c0.356-1.209,0.646-2.454,0.859-3.702l3.942,0.676
		C83.785,63.025,83.46,64.424,83.059,65.783 M11.68,61.799c-0.246-1.394-0.413-2.818-0.497-4.237l3.993-0.235
		c0.074,1.265,0.224,2.535,0.443,3.777L11.68,61.799z M84.5,57.385l-3.994-0.215c0.032-0.598,0.049-1.197,0.049-1.801
		c0-0.674-0.021-1.343-0.061-2.006l3.993-0.242c0.045,0.742,0.067,1.5,0.067,2.248C84.555,56.047,84.536,56.718,84.5,57.385
		 M15.17,53.521l-3.994-0.223c0.079-1.419,0.242-2.846,0.483-4.239l3.942,0.684C15.385,50.983,15.24,52.253,15.17,53.521
		 M80.046,49.585c-0.222-1.244-0.518-2.488-0.884-3.696l3.829-1.157c0.411,1.357,0.745,2.755,0.994,4.152L80.046,49.585z
		 M16.468,46.042l-3.834-1.14c0.404-1.361,0.894-2.713,1.455-4.017l3.675,1.581C17.264,43.626,16.828,44.831,16.468,46.042
		 M77.852,42.322c-0.504-1.158-1.082-2.299-1.717-3.391l3.457-2.012c0.713,1.225,1.361,2.505,1.928,3.805L77.852,42.322z
		 M19.468,39.067l-3.465-1.999c0.708-1.229,1.497-2.429,2.344-3.567l3.21,2.387C20.802,36.902,20.1,37.973,19.468,39.067
		 M74.034,35.764c-0.758-1.012-1.584-1.99-2.454-2.906l2.901-2.754c0.976,1.029,1.901,2.125,2.754,3.26L74.034,35.764z
		 M23.999,32.972l-2.912-2.741c0.972-1.033,2.014-2.018,3.099-2.933l2.577,3.06C25.795,31.171,24.865,32.051,23.999,32.972
		 M68.807,30.253c-0.971-0.81-2-1.572-3.057-2.265l2.191-3.346c1.186,0.777,2.34,1.632,3.429,2.541L68.807,30.253z M29.808,28.081
		l-2.206-3.338c1.183-0.782,2.424-1.502,3.689-2.141l1.804,3.57C31.968,26.74,30.862,27.382,29.808,28.081 M62.452,26.093
		c-1.13-0.564-2.306-1.068-3.495-1.496l1.356-3.764c1.336,0.483,2.657,1.048,3.927,1.682L62.452,26.093z M36.582,24.657
		l-1.375-3.756c1.331-0.487,2.706-0.901,4.087-1.232l0.928,3.891C38.992,23.854,37.768,24.223,36.582,24.657 M55.311,23.52
		c-1.229-0.285-2.489-0.502-3.747-0.643l0.447-3.976c1.411,0.159,2.826,0.402,4.206,0.724L55.311,23.52z M43.966,22.896l-0.47-3.973
		c1.404-0.166,2.836-0.252,4.257-0.256l0.011,4C46.495,22.671,45.217,22.749,43.966,22.896"/>
	<path clip-path="url(#SVGID_2_)" fill="#FFFFFF" d="M48.341,25.169c0,12.798-10.375,23.169-23.17,23.169
		C12.374,48.338,2,37.967,2,25.169C2,12.373,12.374,2,25.171,2C37.966,2,48.341,12.373,48.341,25.169"/>
	<path clip-path="url(#SVGID_2_)" fill="#282D33" d="M25.171,50.338C11.291,50.338,0,39.047,0,25.169S11.291,0,25.171,0
		c13.879,0,25.17,11.291,25.17,25.169S39.05,50.338,25.171,50.338 M25.171,4C13.497,4,4,13.496,4,25.169
		c0,11.673,9.497,21.169,21.171,21.169c11.673,0,21.17-9.496,21.17-21.169C46.341,13.496,36.844,4,25.171,4"/>
	<path clip-path="url(#SVGID_2_)" fill="#F8C44F" d="M43.077,25.169c0,9.889-8.018,17.905-17.906,17.905
		c-9.889,0-17.907-8.016-17.907-17.905c0-9.888,8.018-17.905,17.907-17.905C35.059,7.264,43.077,15.281,43.077,25.169"/>
	<path clip-path="url(#SVGID_2_)" fill="#FFFFFF" d="M31.46,23.072c0,3.475-2.815,6.289-6.29,6.289
		c-3.472,0-6.289-2.814-6.289-6.289s2.817-6.29,6.289-6.29C28.645,16.782,31.46,19.597,31.46,23.072"/>
	<path clip-path="url(#SVGID_2_)" fill="#282D33" d="M25.17,31.361c-4.57,0-8.289-3.718-8.289-8.289c0-4.57,3.719-8.29,8.289-8.29
		c4.571,0,8.29,3.72,8.29,8.29C33.46,27.643,29.741,31.361,25.17,31.361 M25.17,18.782c-2.365,0-4.289,1.925-4.289,4.29
		s1.924,4.289,4.289,4.289c2.365,0,4.29-1.924,4.29-4.289S27.535,18.782,25.17,18.782"/>
	<path clip-path="url(#SVGID_2_)" fill="#FFFFFF" d="M29.888,30.061h-9.433c-3.475,0-6.292,2.816-6.292,6.29v0.513
		c2.876,2.709,6.745,4.38,11.007,4.38c4.266,0,8.131-1.671,11.008-4.38v-0.513C36.178,32.876,33.363,30.061,29.888,30.061"/>
	<path clip-path="url(#SVGID_2_)" fill="#282D33" d="M25.17,43.244c-4.611,0-9.008-1.749-12.379-4.925l-0.629-0.592v-1.376
		c0-4.571,3.72-8.29,8.292-8.29h9.434c4.571,0,8.29,3.719,8.29,8.29v1.376l-0.629,0.592C34.178,41.495,29.782,43.244,25.17,43.244
		 M16.178,35.979c2.53,2.111,5.691,3.265,8.992,3.265c3.301,0,6.462-1.154,8.992-3.265c-0.189-2.191-2.034-3.918-4.274-3.918h-9.434
		C18.213,32.061,16.367,33.788,16.178,35.979"/>
	<path clip-path="url(#SVGID_2_)" fill="#FFFFFF" d="M70.504,103.335c-11.893,0-21.567-9.675-21.567-21.567
		s9.675-21.568,21.567-21.568c11.894,0,21.566,9.676,21.566,21.568S82.397,103.335,70.504,103.335"/>
	<path clip-path="url(#SVGID_2_)" fill="#282D33" d="M70.504,105.335c-12.995,0-23.567-10.571-23.567-23.567
		s10.572-23.568,23.567-23.568c12.994,0,23.566,10.572,23.566,23.568S83.498,105.335,70.504,105.335 M70.504,62.199
		c-10.789,0-19.567,8.778-19.567,19.568c0,10.789,8.778,19.567,19.567,19.567S90.07,92.557,90.07,81.768
		C90.07,70.978,81.293,62.199,70.504,62.199"/>
	<path clip-path="url(#SVGID_2_)" fill="#04B700" d="M58.542,90.084c-1.7-2.422-2.613-5.29-2.613-8.316
		c0-8.035,6.539-14.575,14.575-14.575c8.037,0,14.575,6.54,14.575,14.575c0,3.026-0.913,5.894-2.613,8.316
		c-1.146-2.882-3.96-4.925-7.243-4.925h-9.436C62.503,85.159,59.686,87.202,58.542,90.084"/>
	<path clip-path="url(#SVGID_2_)" fill="#FFFFFF" d="M76.795,79.672c0,3.473-2.816,6.289-6.291,6.289
		c-3.472,0-6.289-2.816-6.289-6.289c0-3.475,2.817-6.289,6.289-6.289C73.979,73.383,76.795,76.197,76.795,79.672"/>
	<path clip-path="url(#SVGID_2_)" fill="#282D33" d="M70.504,87.961c-4.57,0-8.289-3.719-8.289-8.289s3.719-8.289,8.289-8.289
		c4.572,0,8.291,3.719,8.291,8.289S75.076,87.961,70.504,87.961 M70.504,75.383c-2.365,0-4.289,1.924-4.289,4.289
		s1.924,4.289,4.289,4.289c2.366,0,4.291-1.924,4.291-4.289S72.87,75.383,70.504,75.383"/>
	<path clip-path="url(#SVGID_2_)" fill="#282D33" d="M83.512,100.207h-4v-7.258c0-2.365-1.924-4.29-4.289-4.29h-9.436
		c-2.365,0-4.29,1.925-4.29,4.29v7.258h-4v-7.258c0-4.571,3.719-8.29,8.29-8.29h9.436c4.57,0,8.289,3.719,8.289,8.29V100.207z"/>
	<rect x="33.075" y="55.322" clip-path="url(#SVGID_2_)" fill="#282D33" width="4" height="12.666"/>
	<rect x="28.741" y="59.656" clip-path="url(#SVGID_2_)" fill="#282D33" width="12.666" height="4"/>
	<rect x="83.407" y="5.988" clip-path="url(#SVGID_2_)" fill="#282D33" width="4" height="14.667"/>
	<rect x="78.075" y="11.322" clip-path="url(#SVGID_2_)" fill="#282D33" width="14.666" height="4"/>
	<path clip-path="url(#SVGID_2_)" fill="#FFFFFF" d="M31.407,77.988c0,5.155-4.178,9.334-9.332,9.334
		c-5.156,0-9.334-4.179-9.334-9.334c0-5.154,4.178-9.332,9.334-9.332C27.229,68.656,31.407,72.834,31.407,77.988"/>
	<path clip-path="url(#SVGID_2_)" fill="#282D33" d="M22.075,89.322c-6.249,0-11.334-5.084-11.334-11.334
		c0-6.248,5.085-11.332,11.334-11.332s11.332,5.084,11.332,11.332C33.407,84.238,28.324,89.322,22.075,89.322 M22.075,70.656
		c-4.044,0-7.334,3.291-7.334,7.332c0,4.045,3.29,7.334,7.334,7.334c4.043,0,7.332-3.289,7.332-7.334
		C29.407,73.947,26.118,70.656,22.075,70.656"/>
</g>
</svg>
