<?xml version="1.0" encoding="utf-8"?>
<!-- Generator: Adobe Illustrator 16.0.0, SVG Export Plug-In . SVG Version: 6.00 Build 0)  -->
<!DOCTYPE svg PUBLIC "-//W3C//DTD SVG 1.1//EN" "http://www.w3.org/Graphics/SVG/1.1/DTD/svg11.dtd">
<svg version="1.1" id="Слой_1" xmlns="http://www.w3.org/2000/svg" xmlns:xlink="http://www.w3.org/1999/xlink" x="0px" y="0px"
	 width="111.878px" height="83.299px" viewBox="0 0 111.878 83.299" enable-background="new 0 0 111.878 83.299"
	 xml:space="preserve">
<g>
	<defs>
		<rect id="SVGID_1_" width="111.878" height="83.299"/>
	</defs>
	<clipPath id="SVGID_2_">
		<use xlink:href="#SVGID_1_"  overflow="visible"/>
	</clipPath>
	<path clip-path="url(#SVGID_2_)" fill="#04B700" d="M65.508,35.154c0.024-1.951-0.695-3.909-2.184-5.398L43.358,9.79l-4.803-4.803
		L33.569,0c-0.543,0.461-1.075,0.937-1.584,1.448c-12.842,12.841-10.241,36.265,5.81,52.316c0.897,0.894,1.816,1.737,2.753,2.551
		c1.003,0.446,2.081,0.655,3.159,0.638L65.508,35.154z"/>
	<path clip-path="url(#SVGID_2_)" fill="#FFFFFF" d="M101.094,33.683c-0.004-0.021-0.015-0.044-0.018-0.064
		c-0.639-2.709-1.713-5.242-3.143-7.536c-0.046-0.078-0.092-0.162-0.143-0.238c-0.309-0.485-0.638-0.949-0.975-1.409
		c-0.109-0.145-0.213-0.287-0.321-0.427c-0.323-0.423-0.659-0.832-1.014-1.232c-0.14-0.162-0.288-0.319-0.433-0.481
		c-0.346-0.373-0.695-0.741-1.064-1.094c-0.17-0.163-0.349-0.317-0.52-0.476c-0.369-0.334-0.739-0.671-1.127-0.983
		c-0.167-0.135-0.34-0.253-0.514-0.384c-0.672-0.517-1.369-0.994-2.094-1.444c-0.327-0.199-0.65-0.409-0.984-0.594
		c-0.307-0.173-0.633-0.327-0.949-0.487c-0.371-0.184-0.744-0.373-1.125-0.541c-0.313-0.138-0.635-0.263-0.957-0.39
		c-0.404-0.16-0.814-0.313-1.232-0.451c-0.314-0.104-0.629-0.204-0.949-0.295c-0.451-0.131-0.904-0.244-1.357-0.35
		c-0.309-0.07-0.611-0.143-0.92-0.201c-0.515-0.099-1.035-0.174-1.563-0.239c-0.264-0.034-0.524-0.08-0.793-0.104
		c-0.795-0.075-1.599-0.123-2.416-0.123c-0.673,0-1.336,0.04-1.992,0.101C62.467,15.182,52.824,24.52,51.401,36.403
		c-0.881-3.166-3.778-5.493-7.223-5.493H15.942H9.15H2.098C2.041,31.619,2,32.333,2,33.053c0,18.16,18.404,32.887,41.105,32.887
		c1.266,0,2.512-0.053,3.748-0.145c1.987-0.758,3.55-2.344,4.316-4.326c0.018,9.66,0.05,18.777,0.05,18.777
		c3.092,0.681,5.884,1.053,9.197,1.053c1.377,0,2.74-0.072,4.084-0.191c0.448-0.043,0.885-0.117,1.332-0.172
		c0.883-0.105,1.766-0.217,2.638-0.375c0.519-0.092,1.03-0.219,1.544-0.329c0.77-0.168,1.537-0.343,2.292-0.551
		c0.538-0.148,1.067-0.316,1.598-0.486c0.702-0.224,1.403-0.456,2.09-0.712c0.535-0.202,1.063-0.412,1.589-0.633
		c0.654-0.275,1.296-0.565,1.932-0.868c0.523-0.25,1.041-0.502,1.553-0.772c0.606-0.322,1.195-0.663,1.783-1.012
		c0.505-0.299,1.007-0.59,1.494-0.904c0.563-0.366,1.102-0.759,1.641-1.148c0.477-0.342,0.959-0.672,1.419-1.033
		c0.523-0.409,1.011-0.849,1.513-1.281c0.438-0.382,0.894-0.744,1.313-1.138c0.851-0.8,1.659-1.633,2.433-2.5
		c0.442-0.494,0.844-1.021,1.26-1.538c0.349-0.429,0.705-0.85,1.035-1.293c0.402-0.539,0.765-1.103,1.131-1.66
		c0.303-0.453,0.61-0.898,0.887-1.365c0.35-0.574,0.666-1.166,0.986-1.761c0.252-0.477,0.506-0.949,0.74-1.436
		c0.289-0.607,0.561-1.226,0.818-1.851c0.21-0.499,0.406-1.002,0.592-1.511c0.232-0.634,0.449-1.272,0.646-1.922
		c0.164-0.523,0.302-1.054,0.437-1.585c0.171-0.656,0.333-1.313,0.466-1.981c0.033-0.163,0.083-0.316,0.113-0.477v-0.206
		c0.377-2.114,0.62-4.271,0.62-6.485C102.394,39.221,101.199,33.683,101.094,33.683"/>
	<path clip-path="url(#SVGID_2_)" fill="#282D33" d="M60.416,83.3c-3.249,0-6.129-0.33-9.628-1.102l-1.563-0.345l-0.006-1.602
		c0,0-0.022-5.982-0.039-13.391c-0.508,0.316-1.048,0.586-1.614,0.802l-0.274,0.104l-0.291,0.021
		c-1.358,0.101-2.634,0.15-3.896,0.15C19.337,67.939,0,52.289,0,33.052c0-0.681,0.033-1.413,0.104-2.302l0.147-1.841h43.927
		c2.367,0,4.585,0.888,6.28,2.386c3.271-10.45,12.659-18.17,23.878-19.049c1.701-0.158,3.043-0.137,4.753,0.025
		c0.198,0.018,0.399,0.047,0.601,0.075l0.254,0.035c0.567,0.071,1.131,0.154,1.689,0.259c0.272,0.053,0.541,0.114,0.813,0.176
		l0.171,0.039c0.504,0.119,0.989,0.24,1.473,0.38c0.34,0.098,0.68,0.204,1.018,0.317c0.457,0.151,0.902,0.317,1.34,0.489
		l0.095,0.037c0.318,0.125,0.635,0.251,0.943,0.389c0.367,0.162,0.735,0.343,1.1,0.525l0.377,0.187
		c0.259,0.129,0.518,0.258,0.767,0.399c0.258,0.142,0.519,0.305,0.778,0.466l0.267,0.164c0.806,0.499,1.566,1.023,2.27,1.565
		l0.147,0.108c0.137,0.099,0.271,0.198,0.403,0.304c0.394,0.317,0.772,0.658,1.149,1l0.278,0.253c0.117,0.105,0.234,0.21,0.348,0.32
		c0.396,0.38,0.774,0.777,1.146,1.178l0.182,0.2c0.102,0.112,0.201,0.222,0.3,0.334c0.368,0.416,0.734,0.863,1.087,1.324
		l0.325,0.431c0.384,0.524,0.737,1.024,1.069,1.545c0.038,0.057,0.096,0.154,0.151,0.251c1.562,2.51,2.698,5.225,3.378,8.073
		l0.021,0.069c0.27,0.758,0.462,1.836,0.723,3.3c0.293,1.638,0.642,3.953,0.642,5.66c0,2.09-0.203,4.271-0.62,6.659l-0.035,0.403
		c-0.023,0.128-0.055,0.254-0.087,0.38l-0.032,0.125c-0.138,0.696-0.309,1.39-0.488,2.082c-0.143,0.56-0.29,1.125-0.465,1.683
		c-0.203,0.668-0.432,1.342-0.677,2.013c-0.195,0.536-0.403,1.068-0.626,1.597c-0.266,0.645-0.552,1.295-0.855,1.934
		c-0.22,0.457-0.45,0.891-0.682,1.327l-0.169,0.318c-0.315,0.585-0.63,1.167-0.975,1.733c-0.237,0.398-0.505,0.8-0.776,1.203
		L97.628,64c-0.344,0.525-0.69,1.051-1.068,1.558c-0.268,0.36-0.553,0.709-0.839,1.057l-0.55,0.682
		c-0.331,0.417-0.663,0.834-1.019,1.23c-0.819,0.918-1.679,1.802-2.553,2.624c-0.293,0.275-0.601,0.535-0.909,0.795
		c-0.153,0.129-0.308,0.259-0.458,0.391l-0.37,0.321c-0.402,0.352-0.805,0.7-1.229,1.031c-0.364,0.286-0.746,0.558-1.13,0.829
		l-0.353,0.252c-0.558,0.405-1.125,0.814-1.716,1.199c-0.439,0.283-0.881,0.544-1.325,0.807l-0.242,0.143
		c-0.613,0.364-1.229,0.721-1.863,1.057c-0.539,0.285-1.08,0.549-1.628,0.811c-0.666,0.318-1.336,0.621-2.02,0.908
		c-0.551,0.231-1.1,0.45-1.658,0.66c-0.726,0.27-1.456,0.514-2.188,0.746c-0.555,0.178-1.11,0.354-1.674,0.509
		c-0.792,0.218-1.594,0.401-2.397,0.577l-0.465,0.103c-0.384,0.087-0.768,0.173-1.155,0.241c-0.949,0.172-1.918,0.293-2.751,0.393
		l-0.479,0.064c-0.299,0.042-0.597,0.084-0.898,0.112C63.171,83.233,61.777,83.3,60.416,83.3 M53.213,78.613
		c3.804,0.719,6.984,0.87,11.109,0.502c0.229-0.021,0.47-0.057,0.711-0.09c0.185-0.026,0.369-0.053,0.557-0.075
		c0.816-0.099,1.679-0.205,2.523-0.356c0.334-0.061,0.658-0.135,0.982-0.207l0.496-0.111c0.73-0.159,1.464-0.326,2.185-0.523
		c0.51-0.141,1.013-0.301,1.519-0.463c0.673-0.215,1.345-0.438,2.002-0.682c0.504-0.189,1.01-0.393,1.514-0.604
		c0.621-0.261,1.234-0.539,1.842-0.828c0.496-0.237,0.991-0.477,1.479-0.734c0.575-0.307,1.137-0.632,1.697-0.965l0.249-0.146
		c0.399-0.235,0.796-0.469,1.183-0.718c0.525-0.343,1.038-0.715,1.549-1.086l0.382-0.272c0.33-0.233,0.66-0.467,0.978-0.715
		c0.37-0.289,0.716-0.593,1.063-0.896l0.378-0.327c0.159-0.14,0.33-0.284,0.502-0.429c0.254-0.215,0.509-0.428,0.749-0.652
		c0.787-0.741,1.564-1.539,2.309-2.373c0.305-0.342,0.586-0.697,0.868-1.053l0.591-0.732c0.246-0.3,0.492-0.598,0.724-0.908
		c0.331-0.443,0.63-0.902,0.929-1.359l0.305-0.459c0.229-0.341,0.459-0.682,0.67-1.035c0.318-0.523,0.598-1.045,0.88-1.567
		l0.156-0.294c0.207-0.392,0.415-0.781,0.606-1.182c0.271-0.566,0.527-1.152,0.772-1.745c0.202-0.482,0.387-0.955,0.562-1.433
		c0.221-0.603,0.426-1.205,0.611-1.818c0.159-0.506,0.287-1.002,0.414-1.499c0.162-0.626,0.315-1.244,0.44-1.876
		c0.023-0.113,0.049-0.217,0.075-0.318l0.031-0.326c0.396-2.223,0.589-4.229,0.589-6.132c0-1.761-0.509-4.716-0.862-6.441h-0.107
		l-0.307-1.657c-0.578-2.429-1.548-4.745-2.881-6.885l-0.133-0.22c-0.285-0.45-0.59-0.878-0.901-1.304l-0.29-0.385
		c-0.3-0.391-0.605-0.764-0.928-1.13l-0.429-0.474c-0.293-0.317-0.615-0.657-0.956-0.983c-0.083-0.08-0.168-0.156-0.253-0.232
		l-0.245-0.223c-0.362-0.328-0.683-0.619-1.018-0.889c-0.082-0.066-0.164-0.125-0.247-0.185l-0.216-0.159
		c-0.622-0.48-1.253-0.913-1.943-1.341l-0.281-0.174c-0.206-0.128-0.412-0.256-0.623-0.373c-0.196-0.111-0.392-0.207-0.586-0.304
		l-0.386-0.192c-0.31-0.152-0.62-0.309-0.937-0.449c-0.262-0.117-0.524-0.219-0.787-0.323l-0.097-0.037
		c-0.37-0.146-0.745-0.287-1.129-0.414c-0.286-0.093-0.576-0.186-0.871-0.271c-0.424-0.123-0.845-0.227-1.265-0.325l-0.161-0.036
		c-0.226-0.053-0.449-0.104-0.676-0.147c-0.472-0.091-0.949-0.159-1.433-0.219l-0.329-0.046c-0.132-0.018-0.265-0.039-0.399-0.051
		c-1.469-0.138-2.524-0.162-4.043-0.023c-11.034,0.864-19.977,9.446-21.289,20.408l-3.913,0.298
		c-0.66-2.371-2.838-4.028-5.296-4.028H4v0.143c0,17.032,17.542,30.887,39.105,30.887c1.066,0,2.144-0.039,3.287-0.117
		c1.324-0.584,2.377-1.691,2.912-3.075l3.865,0.718C53.182,68.669,53.203,75.57,53.213,78.613"/>
	<path clip-path="url(#SVGID_2_)" fill="#FFFFFF" d="M41.527,76.879c2.849,1.386,5.477,2.401,8.699,3.177
		c1.339,0.321,2.681,0.571,4.014,0.768c0.447,0.065,0.89,0.097,1.335,0.146c0.886,0.105,1.769,0.203,2.651,0.254
		c0.528,0.029,1.053,0.029,1.58,0.041c0.787,0.015,1.576,0.025,2.357,0c0.557-0.019,1.111-0.059,1.668-0.1L41.527,76.879z"/>
	<path clip-path="url(#SVGID_2_)" fill="#282D33" d="M61.139,83.279c-0.456,0-0.913-0.008-1.369-0.016l-0.463-0.008
		c-0.397-0.008-0.796-0.014-1.195-0.037c-0.951-0.055-1.895-0.159-2.772-0.264l-0.419-0.043c-0.322-0.031-0.644-0.063-0.968-0.109
		c-1.461-0.215-2.871-0.484-4.192-0.803c-3.16-0.761-5.884-1.754-9.107-3.323l1.75-3.597c2.95,1.436,5.429,2.342,8.292,3.031
		c1.206,0.289,2.497,0.536,3.837,0.733c0.257,0.039,0.515,0.062,0.773,0.087l0.49,0.049c0.832,0.1,1.703,0.196,2.548,0.245
		c0.342,0.02,0.685,0.024,1.026,0.03l0.484,0.008c0.743,0.015,1.498,0.025,2.246,0.001c0.514-0.018,1.027-0.055,1.543-0.093
		l0.333,3.987c-0.613,0.044-1.178,0.085-1.745,0.104C61.868,83.274,61.504,83.279,61.139,83.279"/>
	<path clip-path="url(#SVGID_2_)" fill="#FFFFFF" d="M88.096,31.626c0,1.949-1.582,3.526-3.531,3.526
		c-1.951,0-3.527-1.577-3.527-3.526c0-1.949,1.576-3.529,3.527-3.529C86.514,28.097,88.096,29.677,88.096,31.626"/>
	<path clip-path="url(#SVGID_2_)" fill="#282D33" d="M84.564,37.153c-3.048,0-5.527-2.479-5.527-5.527
		c0-3.049,2.479-5.529,5.527-5.529c3.05,0,5.531,2.48,5.531,5.529C90.096,34.674,87.614,37.153,84.564,37.153 M84.564,30.097
		c-0.842,0-1.527,0.687-1.527,1.529c0,0.843,0.686,1.527,1.527,1.527c0.844,0,1.531-0.684,1.531-1.527
		C86.096,30.784,85.408,30.097,84.564,30.097"/>
	<path clip-path="url(#SVGID_2_)" fill="#FFFFFF" d="M88.096,31.626h23.782H88.096z"/>
	<rect x="88.096" y="29.626" clip-path="url(#SVGID_2_)" fill="#282D33" width="23.782" height="4"/>
	<path clip-path="url(#SVGID_2_)" fill="#FFFFFF" d="M88.096,30.555l22.352-7.312L88.096,30.555z"/>
	
		<rect x="97.272" y="15.14" transform="matrix(0.3111 0.9504 -0.9504 0.3111 93.9525 -75.8149)" clip-path="url(#SVGID_2_)" fill="#282D33" width="3.999" height="23.517"/>
	<path clip-path="url(#SVGID_2_)" fill="#FFFFFF" d="M5.575,44.135h29.31H5.575z"/>
	<rect x="5.575" y="42.135" clip-path="url(#SVGID_2_)" fill="#282D33" width="29.31" height="4"/>
	<path clip-path="url(#SVGID_2_)" fill="#FFFFFF" d="M15.922,57.736l21.166-5.764L15.922,57.736z"/>
	
		<rect x="24.505" y="43.886" transform="matrix(0.2628 0.9649 -0.9649 0.2628 72.4667 14.8667)" clip-path="url(#SVGID_2_)" fill="#282D33" width="3.999" height="21.937"/>
	<path clip-path="url(#SVGID_2_)" fill="#FFFFFF" d="M33.443,64.396l9.68-6.89L33.443,64.396z"/>
	
		<rect x="36.283" y="55.011" transform="matrix(0.58 0.8146 -0.8146 0.58 65.7267 -5.5881)" clip-path="url(#SVGID_2_)" fill="#282D33" width="3.999" height="11.881"/>
	<path clip-path="url(#SVGID_2_)" fill="#04B700" d="M73.239,77.51c-0.175-1.248-0.261-2.503-0.261-3.756
		c0-14.967,12.063-27.307,27.433-28.694c-0.104,1.147-0.271,2.343-0.509,3.605l-0.05,0.258v0.126
		c-0.024,0.096-0.044,0.178-0.062,0.262c-0.136,0.641-0.299,1.266-0.467,1.891c-0.137,0.506-0.271,1.004-0.432,1.494
		c-0.205,0.643-0.423,1.249-0.656,1.853c-0.186,0.485-0.381,0.962-0.592,1.436c-0.266,0.613-0.541,1.206-0.832,1.789
		c-0.21,0.416-0.447,0.836-0.682,1.259l-0.061,0.107c-0.316,0.56-0.635,1.128-0.986,1.68c-0.225,0.355-0.459,0.686-0.691,1.018
		l-0.377,0.538c-0.311,0.447-0.621,0.898-0.959,1.331c-0.247,0.319-0.508,0.616-0.766,0.916l-0.653,0.77
		c-0.293,0.352-0.587,0.704-0.901,1.04c-0.797,0.846-1.623,1.653-2.459,2.401c-0.251,0.225-0.521,0.439-0.791,0.656
		c-0.183,0.146-0.945,0.771-0.945,0.771c-0.368,0.305-0.73,0.609-1.115,0.895c-0.348,0.259-0.695,0.491-1.044,0.726l-0.401,0.272
		c-0.599,0.411-1.12,0.772-1.666,1.11c-0.404,0.248-0.824,0.482-1.246,0.72l-0.268,0.152c-0.6,0.336-1.199,0.666-1.818,0.979
		c-0.509,0.256-1.037,0.498-1.57,0.742c-0.641,0.289-1.293,0.57-1.959,0.836c-0.537,0.214-1.078,0.419-1.623,0.616
		C73.636,77.376,73.438,77.443,73.239,77.51"/>
</g>
</svg>
