<?xml version="1.0" encoding="utf-8"?>
<!-- Generator: Adobe Illustrator 16.0.0, SVG Export Plug-In . SVG Version: 6.00 Build 0)  -->
<!DOCTYPE svg PUBLIC "-//W3C//DTD SVG 1.1//EN" "http://www.w3.org/Graphics/SVG/1.1/DTD/svg11.dtd">
<svg version="1.1" id="Слой_1" xmlns="http://www.w3.org/2000/svg" xmlns:xlink="http://www.w3.org/1999/xlink" x="0px" y="0px"
	 width="101.5px" height="80.499px" viewBox="0 0 101.5 80.499" enable-background="new 0 0 101.5 80.499" xml:space="preserve">
<rect x="8" y="19.25" fill="#04B700" width="85.5" height="53.249"/>
<rect x="22" y="13" fill="#F8C44F" width="8.5" height="65.749"/>
<rect x="71" y="13" fill="#F8C44F" width="8.5" height="65.749"/>
<g>
	<defs>
		<rect id="SVGID_1_" y="0" width="101.5" height="80.498"/>
	</defs>
	<clipPath id="SVGID_2_">
		<use xlink:href="#SVGID_1_"  overflow="visible"/>
	</clipPath>
	<path clip-path="url(#SVGID_2_)" fill="#282D33" d="M19.756,47.725H14.63c-8.682,0-14.515-6.762-14.515-16.826V17.63h4v13.269
		c0,6.2,2.763,12.826,10.515,12.826h5.126V47.725z"/>
	<path clip-path="url(#SVGID_2_)" fill="#282D33" d="M86.87,47.725h-5.176v-4h5.176c7.753,0,10.515-6.677,10.515-12.926V17.532h4
		v13.267C101.385,40.923,95.552,47.725,86.87,47.725"/>
	<rect x="28.287" y="13.508" clip-path="url(#SVGID_2_)" fill="#282D33" width="4" height="22.868"/>
	<rect x="20.247" y="13.508" clip-path="url(#SVGID_2_)" fill="#282D33" width="4" height="22.868"/>
	<rect x="28.287" y="54.923" clip-path="url(#SVGID_2_)" fill="#282D33" width="4" height="22.869"/>
	<rect x="20.247" y="54.923" clip-path="url(#SVGID_2_)" fill="#282D33" width="4" height="22.869"/>
	<path clip-path="url(#SVGID_2_)" fill="#282D33" d="M31.083,57.376h-9.631c-1.997,0-3.622-1.626-3.622-3.624V38.489
		c0-1.998,1.625-3.621,3.622-3.621h9.631c1.996,0,3.62,1.623,3.62,3.621v15.264C34.703,55.75,33.079,57.376,31.083,57.376
		 M21.83,53.376h8.873V38.868H21.83V53.376z"/>
	<rect x="24.268" y="48.943" clip-path="url(#SVGID_2_)" fill="#282D33" width="4" height="5.424"/>
	<rect x="77.254" y="13.508" clip-path="url(#SVGID_2_)" fill="#282D33" width="4" height="22.868"/>
	<rect x="69.214" y="13.508" clip-path="url(#SVGID_2_)" fill="#282D33" width="4" height="22.868"/>
	<rect x="77.254" y="54.923" clip-path="url(#SVGID_2_)" fill="#282D33" width="4" height="22.869"/>
	<rect x="69.214" y="54.923" clip-path="url(#SVGID_2_)" fill="#282D33" width="4" height="22.869"/>
	<path clip-path="url(#SVGID_2_)" fill="#282D33" d="M80.05,57.376h-9.631c-1.997,0-3.622-1.626-3.622-3.624V38.489
		c0-1.998,1.625-3.621,3.622-3.621h9.631c1.996,0,3.62,1.623,3.62,3.621v15.264C83.67,55.75,82.046,57.376,80.05,57.376
		 M70.797,53.376h8.873V38.868h-8.873V53.376z"/>
	<rect x="73.234" y="48.943" clip-path="url(#SVGID_2_)" fill="#282D33" width="4" height="5.424"/>
	<rect x="32.647" y="43.725" clip-path="url(#SVGID_2_)" fill="#282D33" width="36.207" height="4"/>
	<path clip-path="url(#SVGID_2_)" fill="#282D33" d="M101.5,80.499H0V11.25h101.5V80.499z M4,76.499h93.5V15.25H4V76.499z"/>
	<polygon clip-path="url(#SVGID_2_)" fill="#282D33" points="65.417,8.499 61.417,8.499 61.417,4 40.083,4 40.083,8.499 
		36.083,8.499 36.083,0 65.417,0 	"/>
</g>
</svg>
