<?xml version="1.0" encoding="utf-8"?>
<!-- Generator: Adobe Illustrator 16.0.0, SVG Export Plug-In . SVG Version: 6.00 Build 0)  -->
<!DOCTYPE svg PUBLIC "-//W3C//DTD SVG 1.1//EN" "http://www.w3.org/Graphics/SVG/1.1/DTD/svg11.dtd">
<svg version="1.1" id="Слой_1" xmlns="http://www.w3.org/2000/svg" xmlns:xlink="http://www.w3.org/1999/xlink" x="0px" y="0px"
	 width="92.358px" height="100.423px" viewBox="0 0 92.358 100.423" enable-background="new 0 0 92.358 100.423"
	 xml:space="preserve">
<rect x="38.424" y="2.058" fill="#F8C44F" width="28.42" height="96.482"/>
<rect x="37.633" fill="#F8C44F" width="29.998" height="5.081"/>
<rect x="21.108" y="46.308" fill="#FFFFFF" width="27.631" height="52.115"/>
<path fill="#282D33" d="M23.108,48.308h23.63v48.116h-23.63V48.308z M19.109,100.423H50.74V44.308H19.109V100.423z"/>
<rect x="20.32" y="41.151" fill="#FFFFFF" width="29.209" height="6.157"/>
<path fill="#282D33" d="M51.529,49.308H18.32V39.151h33.209V49.308z M22.32,45.308h25.209v-2.157H22.32V45.308z"/>
<path fill="#FFFFFF" d="M25.616,54.201h3.703H25.616z"/>
<rect x="25.616" y="52.201" fill="#282D33" width="3.702" height="4"/>
<path fill="#FFFFFF" d="M33.014,54.201h3.703H33.014z"/>
<rect x="33.014" y="52.201" fill="#282D33" width="3.703" height="4"/>
<path fill="#FFFFFF" d="M40.411,54.201h3.705H40.411z"/>
<rect x="40.411" y="52.201" fill="#282D33" width="3.705" height="4"/>
<path fill="#FFFFFF" d="M25.616,61.201h3.703H25.616z"/>
<rect x="25.616" y="59.201" fill="#282D33" width="3.702" height="4"/>
<path fill="#FFFFFF" d="M33.014,61.201h3.703H33.014z"/>
<rect x="33.014" y="59.201" fill="#282D33" width="3.703" height="4"/>
<path fill="#FFFFFF" d="M40.411,61.201h3.705H40.411z"/>
<rect x="40.411" y="59.201" fill="#282D33" width="3.705" height="4"/>
<path fill="#FFFFFF" d="M25.616,68.201h3.703H25.616z"/>
<rect x="25.616" y="66.201" fill="#282D33" width="3.702" height="4"/>
<path fill="#FFFFFF" d="M33.014,68.201h3.703H33.014z"/>
<rect x="33.014" y="66.201" fill="#282D33" width="3.703" height="4"/>
<path fill="#FFFFFF" d="M40.411,68.201h3.705H40.411z"/>
<rect x="40.411" y="66.201" fill="#282D33" width="3.705" height="4"/>
<path fill="#FFFFFF" d="M25.616,75.201h3.703H25.616z"/>
<rect x="25.616" y="73.201" fill="#282D33" width="3.702" height="4"/>
<path fill="#FFFFFF" d="M33.014,75.201h3.703H33.014z"/>
<rect x="33.014" y="73.201" fill="#282D33" width="3.703" height="4"/>
<path fill="#FFFFFF" d="M40.411,75.201h3.705H40.411z"/>
<rect x="40.411" y="73.201" fill="#282D33" width="3.705" height="4"/>
<path fill="#FFFFFF" d="M25.616,82.201h3.703H25.616z"/>
<rect x="25.616" y="80.201" fill="#282D33" width="3.702" height="4"/>
<path fill="#FFFFFF" d="M33.014,82.201h3.703H33.014z"/>
<rect x="33.014" y="80.201" fill="#282D33" width="3.703" height="4"/>
<path fill="#FFFFFF" d="M40.411,82.201h3.705H40.411z"/>
<rect x="40.411" y="80.201" fill="#282D33" width="3.705" height="4"/>
<path fill="#FFFFFF" d="M25.616,89.201h3.703H25.616z"/>
<rect x="25.616" y="87.201" fill="#282D33" width="3.702" height="4"/>
<path fill="#FFFFFF" d="M33.014,89.201h3.703H33.014z"/>
<rect x="33.014" y="87.201" fill="#282D33" width="3.703" height="4"/>
<path fill="#FFFFFF" d="M40.411,89.201h3.705H40.411z"/>
<rect x="40.411" y="87.201" fill="#282D33" width="3.705" height="4"/>
<rect x="64.728" y="35.229" fill="#04B700" width="25.631" height="63.194"/>
<path fill="#282D33" d="M66.729,37.229h21.631v59.195H66.729V37.229z M62.728,100.423h29.631V33.229H62.728V100.423z"/>
<rect x="68.272" y="28.757" fill="#04B700" width="18.541" height="6.449"/>
<path fill="#282D33" d="M88.813,37.207H66.272V26.758h22.541V37.207z M70.272,33.207h14.541v-2.449H70.272V33.207z"/>
<rect x="68.919" y="40.076" fill="#FFFFFF" width="17.25" height="4"/>
<rect x="68.919" y="48.076" fill="#FFFFFF" width="17.25" height="4"/>
<rect x="68.919" y="56.076" fill="#FFFFFF" width="17.25" height="4"/>
<rect x="68.919" y="64.076" fill="#FFFFFF" width="17.25" height="4"/>
<rect x="68.919" y="72.076" fill="#FFFFFF" width="17.25" height="4"/>
<rect x="68.919" y="80.076" fill="#FFFFFF" width="17.25" height="4"/>
<rect x="68.919" y="88.076" fill="#FFFFFF" width="17.25" height="4"/>
<path fill="#5EB4E7" d="M77.544,27.868v-9.333V27.868z"/>
<rect x="75.544" y="18.534" fill="#282D33" width="4" height="9.333"/>
<path fill="#FFFFFF" d="M8,33.292h10H8z"/>
<rect x="8" y="31.292" fill="#282D33" width="10" height="4"/>
<path fill="#FFFFFF" d="M0,33.292h4.063H0z"/>
<rect y="31.292" fill="#282D33" width="4.063" height="4"/>
<path fill="#FFFFFF" d="M57.241,10.868h4.063H57.241z"/>
<rect x="57.242" y="8.867" fill="#282D33" width="4.062" height="4"/>
<rect x="12.074" y="96.423" fill="#282D33" width="50.999" height="4"/>
<g>
	<defs>
		<rect id="SVGID_1_" width="92.358" height="100.423"/>
	</defs>
	<clipPath id="SVGID_2_">
		<use xlink:href="#SVGID_1_"  overflow="visible"/>
	</clipPath>
	<path clip-path="url(#SVGID_2_)" fill="#FFFFFF" d="M30.241,20.617c0,2.9-2.351,5.25-5.25,5.25s-5.25-2.35-5.25-5.25
		s2.351-5.25,5.25-5.25S30.241,17.717,30.241,20.617"/>
	<path clip-path="url(#SVGID_2_)" fill="#282D33" d="M24.991,27.867c-3.998,0-7.25-3.252-7.25-7.25s3.252-7.25,7.25-7.25
		c3.997,0,7.25,3.252,7.25,7.25S28.988,27.867,24.991,27.867 M24.991,17.367c-1.792,0-3.25,1.458-3.25,3.25s1.458,3.25,3.25,3.25
		s3.25-1.458,3.25-3.25S26.783,17.367,24.991,17.367"/>
	<path clip-path="url(#SVGID_2_)" fill="#FFFFFF" d="M44.991,18.492c0,4.763-3.861,8.625-8.625,8.625s-8.625-3.862-8.625-8.625
		s3.861-8.625,8.625-8.625S44.991,13.729,44.991,18.492"/>
	<path clip-path="url(#SVGID_2_)" fill="#282D33" d="M36.366,29.117c-5.858,0-10.625-4.767-10.625-10.625
		c0-5.859,4.767-10.625,10.625-10.625s10.625,4.766,10.625,10.625C46.991,24.35,42.224,29.117,36.366,29.117 M36.366,11.867
		c-3.653,0-6.625,2.971-6.625,6.625c0,3.653,2.972,6.625,6.625,6.625s6.625-2.972,6.625-6.625
		C42.991,14.838,40.019,11.867,36.366,11.867"/>
	<path clip-path="url(#SVGID_2_)" fill="#FFFFFF" d="M51.991,20.617c0,2.9-2.351,5.25-5.25,5.25c-2.899,0-5.25-2.35-5.25-5.25
		s2.351-5.25,5.25-5.25C49.641,15.367,51.991,17.717,51.991,20.617"/>
	<path clip-path="url(#SVGID_2_)" fill="#282D33" d="M46.741,27.867c-3.998,0-7.25-3.252-7.25-7.25s3.252-7.25,7.25-7.25
		c3.997,0,7.25,3.252,7.25,7.25S50.738,27.867,46.741,27.867 M46.741,17.367c-1.792,0-3.25,1.458-3.25,3.25s1.458,3.25,3.25,3.25
		s3.25-1.458,3.25-3.25S48.533,17.367,46.741,17.367"/>
</g>
</svg>
