<?xml version="1.0" encoding="utf-8"?>
<!-- Generator: Adobe Illustrator 16.0.0, SVG Export Plug-In . SVG Version: 6.00 Build 0)  -->
<!DOCTYPE svg PUBLIC "-//W3C//DTD SVG 1.1//EN" "http://www.w3.org/Graphics/SVG/1.1/DTD/svg11.dtd">
<svg version="1.1" id="Слой_1" xmlns="http://www.w3.org/2000/svg" xmlns:xlink="http://www.w3.org/1999/xlink" x="0px" y="0px"
	 width="101.832px" height="99px" viewBox="0 0 101.832 99" enable-background="new 0 0 101.832 99" xml:space="preserve">
<polygon fill="#04B700" points="78.418,45.083 78.418,52.083 86.836,52.083 63.676,75.44 20.311,39.846 8.572,52.818 13.764,57.515 
	21.025,49.488 64.16,84.895 91.918,56.901 91.918,65.583 98.918,65.583 98.918,45.083 "/>
<polygon fill="#282D33" points="0,0 0,99 99,99 99,95 4,95 4,0 "/>
<path fill="#FFFFFF" d="M12.229,95.707v-5.875V95.707z"/>
<rect x="10.23" y="89.832" fill="#282D33" width="4" height="5.875"/>
<path fill="#FFFFFF" d="M25.637,95.707v-5.875V95.707z"/>
<rect x="23.637" y="89.832" fill="#282D33" width="4" height="5.875"/>
<path fill="#FFFFFF" d="M39.043,95.707v-5.875V95.707z"/>
<rect x="37.043" y="89.832" fill="#282D33" width="4" height="5.875"/>
<path fill="#FFFFFF" d="M52.449,95.707v-5.875V95.707z"/>
<rect x="50.449" y="89.832" fill="#282D33" width="4" height="5.875"/>
<path fill="#FFFFFF" d="M65.855,95.707v-5.875V95.707z"/>
<rect x="63.855" y="89.832" fill="#282D33" width="4" height="5.875"/>
<path fill="#FFFFFF" d="M79.26,95.707v-5.875V95.707z"/>
<rect x="77.26" y="89.832" fill="#282D33" width="4" height="5.875"/>
<path fill="#FFFFFF" d="M92.668,95.707v-5.875V95.707z"/>
<rect x="90.668" y="89.832" fill="#282D33" width="4" height="5.875"/>
<path fill="#FFFFFF" d="M1.794,5.261h5.873H1.794z"/>
<rect x="1.795" y="3.262" fill="#282D33" width="5.873" height="4"/>
<path fill="#FFFFFF" d="M1.794,18.667h5.873H1.794z"/>
<rect x="1.795" y="16.667" fill="#282D33" width="5.873" height="4"/>
<path fill="#FFFFFF" d="M1.794,32.073h5.873H1.794z"/>
<rect x="1.795" y="30.073" fill="#282D33" width="5.873" height="4"/>
<path fill="#FFFFFF" d="M1.794,45.479h5.873H1.794z"/>
<rect x="1.795" y="43.479" fill="#282D33" width="5.873" height="4"/>
<path fill="#FFFFFF" d="M1.794,58.886h5.873H1.794z"/>
<rect x="1.795" y="56.886" fill="#282D33" width="5.873" height="4"/>
<path fill="#FFFFFF" d="M1.794,72.29h5.873H1.794z"/>
<rect x="1.795" y="70.29" fill="#282D33" width="5.873" height="4"/>
<path fill="#FFFFFF" d="M1.794,85.698h5.873H1.794z"/>
<rect x="1.795" y="83.698" fill="#282D33" width="5.873" height="4"/>
<polygon fill="#FFFFFF" points="78.832,12.076 78.832,20.076 87.051,20.076 61.668,44.667 47.541,32.558 10.926,71.33 
	16.742,76.823 48.125,43.594 61.998,55.485 91.832,26.582 91.832,33.076 99.832,33.076 99.832,12.076 "/>
<path fill="#282D33" d="M80.832,14.076h17v17h-4v-9.217L61.916,52.781L47.98,40.834L16.661,73.996l-2.908-2.747l33.933-35.932
	l14.065,12.055l30.238-29.296H80.832V14.076z M76.832,10.076v12h5.28L61.585,41.96L47.396,29.799L8.098,71.411l8.725,8.239
	L48.27,46.353L62.081,58.19l27.751-26.886v3.772h12v-25H76.832z"/>
</svg>
