<?xml version="1.0" encoding="utf-8"?>
<!-- Generator: Adobe Illustrator 16.0.0, SVG Export Plug-In . SVG Version: 6.00 Build 0)  -->
<!DOCTYPE svg PUBLIC "-//W3C//DTD SVG 1.1//EN" "http://www.w3.org/Graphics/SVG/1.1/DTD/svg11.dtd">
<svg version="1.1" id="Слой_1" xmlns="http://www.w3.org/2000/svg" xmlns:xlink="http://www.w3.org/1999/xlink" x="0px" y="0px"
	 width="91.023px" height="94.545px" viewBox="0 0 91.023 94.545" enable-background="new 0 0 91.023 94.545" xml:space="preserve">
<rect x="15.463" y="8" fill="#04B700" width="49.037" height="55.935"/>
<g>
	<defs>
		<rect id="SVGID_1_" width="91.023" height="94.545"/>
	</defs>
	<clipPath id="SVGID_2_">
		<use xlink:href="#SVGID_1_"  overflow="visible"/>
	</clipPath>
	<path clip-path="url(#SVGID_2_)" fill="#282D33" d="M4.147,81.211H0V8.6h0.231C1.251,3.71,5.629,0,10.781,0H72.5v71.935H10.781
		C7.042,71.935,4,74.977,4,78.717c0,0.075,0.007,0.148,0.012,0.222L4.147,81.211z M4,11.054v59.287
		c1.854-1.505,4.214-2.406,6.781-2.406H68.5V4H10.781c-3.66,0-6.698,2.979-6.772,6.641L4,11.054z"/>
	<path clip-path="url(#SVGID_2_)" fill="#FFFFFF" d="M70.5,69.935H53.531h-42.75C5.932,69.935,2,73.867,2,78.717
		c0,4.848,3.932,8.778,8.781,8.778h42.75H70.5V69.935z"/>
	<path clip-path="url(#SVGID_2_)" fill="#282D33" d="M72.5,89.495H10.781C4.837,89.495,0,84.66,0,78.717
		c0-5.946,4.837-10.782,10.781-10.782H72.5V89.495z M10.781,71.935C7.042,71.935,4,74.977,4,78.717c0,3.737,3.042,6.778,6.781,6.778
		H68.5V71.935H10.781z"/>
	<path clip-path="url(#SVGID_2_)" fill="#FFFFFF" d="M89.023,6.195V2.763c0-0.424-0.468-0.763-1.05-0.763h-7.46
		c-0.584,0-1.055,0.339-1.055,0.763v3.432H89.023z"/>
	<path clip-path="url(#SVGID_2_)" fill="#282D33" d="M91.023,6.195h-4V4h-5.564v2.195h-4V2.763c0-1.55,1.342-2.763,3.055-2.763h7.46
		c1.71,0,3.05,1.213,3.05,2.763V6.195z"/>
	<polygon clip-path="url(#SVGID_2_)" fill="#F8C44F" points="27.886,94.545 21.516,90.505 15.147,94.545 15.147,79.474 
		21.516,79.474 27.886,79.474 	"/>
	<path clip-path="url(#SVGID_2_)" fill="#FFFFFF" d="M10.127,79.217h60.374H10.127z"/>
	<rect x="10.127" y="77.217" clip-path="url(#SVGID_2_)" fill="#282D33" width="60.374" height="4"/>
	<path clip-path="url(#SVGID_2_)" fill="#FFFFFF" d="M10.127,69.392V2.847V69.392z"/>
	<rect x="8.127" y="2.847" clip-path="url(#SVGID_2_)" fill="#282D33" width="4" height="66.544"/>
	<rect x="79.459" y="10.135" clip-path="url(#SVGID_2_)" fill="#F8C44F" width="9.564" height="46.559"/>
	<path clip-path="url(#SVGID_2_)" fill="#282D33" d="M91.023,58.693H77.459V8.135h13.564V58.693z M81.459,54.693h5.564V12.135
		h-5.564V54.693z"/>
	<polygon clip-path="url(#SVGID_2_)" fill="#282D33" points="84.249,75.989 77.474,59.223 77.474,57.346 81.474,57.346 
		81.474,58.444 84.249,65.312 87.023,58.445 87.023,57.346 91.023,57.346 91.023,59.222 	"/>
	<rect x="26.797" y="31.804" clip-path="url(#SVGID_2_)" fill="#FFFFFF" width="27" height="4"/>
	<rect x="29.964" y="23.304" clip-path="url(#SVGID_2_)" fill="#FFFFFF" width="20.666" height="4"/>
</g>
</svg>
